<svg xmlns="http://www.w3.org/2000/svg" viewBox="0 0 546.49 102.5"><defs><style>.cls-1{fill:#86bbd3;}.cls-2{fill:#354a5c;}</style></defs><title>logo</title><g id="Calque_2" data-name="Calque 2"><g id="smiley"><rect class="cls-1" x="170.2" y="18.47" width="0.83" height="0.83"/><path class="cls-2" d="M77.54,85.85c2.63-.28,4.13-.7,5-1.32a2.23,2.23,0,0,0,.8-2.46A28,28,0,0,0,82,79c9.3-2.59,16.28-12.94,16.28-25.27V50.91h-18V43.59a4.51,4.51,0,0,0-9,0v7.3l-11.82,0H49.84v.07h-13V43.59a4.51,4.51,0,0,0-9,0V50.9l-14.63,0H10.42v2.89c0,12.22,6.84,22.49,16,25.2-.45,1.07-.88,2.14-1,2.55A2.2,2.2,0,0,0,26,83.83c.76.68,2.24,1.2,4.74,1.59l1.8.24c4.62.52,11.88.73,22.92.73,9.76,0,16.13-.08,20.31-.38ZM46.12,66.7c-.19.35-.38.7-.59,1l-.12.2c-.17.28-.35.55-.53.82l-.14.21c-.2.29-.41.58-.62.86l-.07.08a21.73,21.73,0,0,1-1.52,1.77l-.18.17c-.2.21-.41.42-.63.62l-.21.19c-.22.2-.45.4-.69.58l-.15.13c-.3.23-.59.46-.9.67h0a9.9,9.9,0,0,1-.87.56l-.25.15-.68.38-.29.15-.71.32-.25.11c-.33.14-.65.26-1,.37l-.06,0q-.46.15-.93.27l-.32.07-.71.14a2,2,0,0,1-.35.06q-.36.06-.72.09c-.11,0-.22,0-.33,0-.34,0-.69,0-1,0s-.62,0-.93,0l-.1,0c-.28,0-.55,0-.83-.08h0a13.36,13.36,0,0,1-1.78-.36c-8.16-2.2-14.36-11.54-14.36-22.6v-.06l14.64,0v3.39a4.51,4.51,0,0,0,9,0V53.73H49.27A27.51,27.51,0,0,1,46.12,66.7Zm3.17,0A30.09,30.09,0,0,0,52,56.47h4.74a30.56,30.56,0,0,0,2.68,10.21ZM77.43,76.82c-.35,0-.7,0-1.05,0-.11,0-.21,0-.32,0s-.48,0-.72-.09a2.25,2.25,0,0,1-.36-.06l-.7-.14L74,76.38c-.31-.08-.61-.17-.92-.27l-.07,0c-.33-.11-.66-.23-1-.37l-.24-.1L71,75.29l-.29-.15c-.23-.12-.46-.24-.68-.38l-.25-.14c-.29-.17-.57-.36-.85-.55l0,0-.9-.67-.11-.1c-.25-.2-.49-.4-.73-.62L67,72.49c-.22-.2-.44-.42-.66-.63l-.15-.16A20.55,20.55,0,0,1,64,69l-.11-.16c-.19-.28-.38-.57-.56-.87a1.4,1.4,0,0,1-.1-.16q-.32-.51-.6-1a27.47,27.47,0,0,1-3.17-13v-.06l11.83,0v3.4a4.51,4.51,0,0,0,9,0V53.73h15.2C95.45,66.39,87.32,76.82,77.43,76.82Z"/><polygon class="cls-2" points="94.61 97.98 94.61 97.98 94.6 97.98 94.61 97.98"/><path class="cls-2" d="M100.8,52.08V27a6.5,6.5,0,0,0-6-6.3l-5-.32-1.93-4.26a4.7,4.7,0,0,0-4.57-3.57H80.05l-1-8.23A4.27,4.27,0,0,0,74.79,0H34.46a4.27,4.27,0,0,0-4.27,4.27l-1,8.23H26a4.69,4.69,0,0,0-4.57,3.57L19.49,20.3c-1.86.11-3.71.22-5.57.35a6.5,6.5,0,0,0-6,6.3V52.08l-2.4,1.28v-.07l-1.16.54V54L0,56.28V75.51l7.88,3.61V93.93a6.5,6.5,0,0,0,6.05,6.3c13.4.91,26.91,1.36,40.41,1.36s27-.45,40.42-1.36h0a6.5,6.5,0,0,0,6-6.3V79.12l7.88-3.61V56.28ZM4.32,75l-2.07-1V57.63l2.07-1.1Zm2.44,1.12-1.28-.59V55.91l1.28-.68ZM23.5,16.91l.08-.23A2.44,2.44,0,0,1,26,14.76H83.27a2.44,2.44,0,0,1,2.4,1.92l1.56,3.49h-.41a603.74,603.74,0,0,0-64.8,0Zm75.05,77a4.21,4.21,0,0,1-3.94,4h0a597.83,597.83,0,0,1-80.53,0,4.21,4.21,0,0,1-3.94-4V27a4.21,4.21,0,0,1,3.94-4.05c2.61-.18,5.23-.33,7.84-.48H86.76c2.62.15,5.23.3,7.84.48a4.21,4.21,0,0,1,4,4.05Zm4.32-18.23-.94.43V55.23l.94.5Zm3.56-1.64L104,75.17V56.35l2.41,1.28Z"/><path class="cls-2" d="M159,87.85c-13.14,0-21.26-6.2-21.26-17.72V52.26c0-11.59,8.19-17.87,21.19-17.87,12.55,0,19.71,5.47,19.71,15.51V51a1.78,1.78,0,0,1-1.84,1.84h-8.2a1.65,1.65,0,0,1-1.7-1.77V49.9c0-4.73-2.07-7-8.05-7-5.76,0-8.49,2.74-8.49,8.2v20c0,5.46,2.81,8.27,8.71,8.27s8.2-2.44,8.2-7.16V68.14h-6.13a3.07,3.07,0,0,1-3.39-3.25V62.52a3.08,3.08,0,0,1,3.39-3.32h14.18c2.21,0,3.4,1,3.4,3.4v9.6C178.75,82.24,171.36,87.85,159,87.85Z"/><path class="cls-2" d="M204.44,87H186.21a1.8,1.8,0,0,1-1.92-1.84V80.69a1.78,1.78,0,0,1,1.92-1.77h2.95V61.49l-3.4-3.4c-1.84-1.84-1.92-4.06-.14-5.83l2.14-2.14a3.86,3.86,0,0,1,5.83.07l4.87,4.88c1.78-4.14,4.95-6.43,9.23-6.43h.89c3.25,0,4.87,1.55,4.87,4.36v2.07c0,2.58-1.7,4.06-4.43,4.06H207c-3.62,0-5.91,2.36-5.91,6.27V78.92h3.39a1.82,1.82,0,0,1,1.92,1.77v4.43A1.84,1.84,0,0,1,204.44,87Z"/><path class="cls-2" d="M241.15,82.31c-2.15,3.33-6.06,5.54-11.45,5.54-9.38,0-14.55-4.21-14.55-11.15v-.88c0-7.17,4.29-11.08,15-11.08a33.81,33.81,0,0,1,7.76.89V60.24c0-2.74-1.55-4-5.25-4s-5.16,1.25-5.16,3.4v.73a1.29,1.29,0,0,1-1.41,1.41h-8a1.42,1.42,0,0,1-1.55-1.63v-.81c0-6.79,5.46-10.85,16.09-10.85,10.93,0,17,4.79,17,12.55v14l3.17,3.17c1.77,1.77,1.92,4.06.15,5.83l-2.14,2.15a3.88,3.88,0,0,1-5.84-.08Zm-8.94-2.06c3.32,0,5.69-2,5.69-5V71.68a19.11,19.11,0,0,0-5.47-.74c-4.21,0-5.76,1.63-5.76,4.28V76C226.67,78.62,228.37,80.25,232.21,80.25Z"/><path class="cls-2" d="M277.48,87H259.61a1.8,1.8,0,0,1-1.92-1.84V80.69a1.78,1.78,0,0,1,1.92-1.77h2.95V61.49l-3.39-3.4c-1.85-1.84-1.92-4.06-.15-5.83l2.14-2.14a3.86,3.86,0,0,1,5.83.07l4.28,4.29c2.15-3.92,6.13-6,11.45-6,9,0,14.91,5.31,14.91,14.84V78.92h3a1.78,1.78,0,0,1,1.92,1.77v4.43A1.8,1.8,0,0,1,300.66,87H289.22c-2.29,0-3.47-1-3.47-3.47V63.26c0-3.91-1.92-6.13-5.62-6.13s-5.68,2.15-5.68,6.13V78.92h3a1.79,1.79,0,0,1,1.92,1.77v4.43A1.8,1.8,0,0,1,277.48,87Z"/><path class="cls-2" d="M333.89,82c-2.21,3.76-6.27,5.83-11.66,5.83-8.94,0-15.88-5.39-15.88-15.14V63.63c0-9.52,6.79-14.91,15.29-14.91a12.68,12.68,0,0,1,8.93,3.17V43.33h-2.95a1.77,1.77,0,0,1-1.85-1.78V37.12a1.78,1.78,0,0,1,1.85-1.84H339c2.29,0,3.54,1,3.54,3.47V74.86l3.4,3.39a3.86,3.86,0,0,1,.07,5.83l-2.14,2.15a3.86,3.86,0,0,1-5.83-.08ZM318.46,62.6V73.67c0,3.84,1.85,5.91,6.05,5.91s6.06-2.07,6.06-5.91V62.6c0-3.91-1.92-5.91-6.06-5.91S318.46,58.69,318.46,62.6Z"/><path class="cls-2" d="M351.76,85.49V83.72a1.4,1.4,0,0,1,1.55-1.41h5.1V39.93h-5.1a1.4,1.4,0,0,1-1.55-1.4V36.76a1.46,1.46,0,0,1,1.55-1.48h20.83c10.41,0,16.83,4.43,16.83,13.58v4.51C391,62.52,384.55,67,374.14,67h-9.38V82.31h5.54c1,0,1.62.52,1.62,1.41v1.77A1.47,1.47,0,0,1,370.3,87h-17A1.46,1.46,0,0,1,351.76,85.49Zm22.38-23.11c6.49,0,10.41-2.81,10.41-9V48.94c0-6.2-3.92-9-10.41-9h-9.38V62.38Z"/><path class="cls-2" d="M410.47,102.32A2.43,2.43,0,0,1,409,98.93l4.8-12h-1.4c-1.11,0-1.7-.51-2.14-1.77L399.39,54.85h-3.17a1.38,1.38,0,0,1-1.48-1.41V51.67a1.38,1.38,0,0,1,1.48-1.4h14.17a1.38,1.38,0,0,1,1.48,1.4v1.7a1.38,1.38,0,0,1-1.48,1.4h-4.65L415.49,83l9.82-28.21h-4.58a1.4,1.4,0,0,1-1.55-1.4v-1.7a1.4,1.4,0,0,1,1.55-1.4h12.85a1.38,1.38,0,0,1,1.48,1.4v1.77a1.39,1.39,0,0,1-1.48,1.41H430.4l-16.54,45.92A2.55,2.55,0,0,1,410.47,102.32Z"/><path class="cls-2" d="M461.79,87H439.42a1.46,1.46,0,0,1-1.56-1.47V83.72a1.41,1.41,0,0,1,1.56-1.41h5.09V39.93h-5.09a1.41,1.41,0,0,1-1.56-1.4V36.76a1.46,1.46,0,0,1,1.56-1.48H461.2c10,0,15.72,4.21,15.72,12.7v2c0,5.61-3.24,9.16-9.08,10.56,6.5,1.4,10.12,5.17,10.12,11.3V74C478,82.61,472.13,87,461.79,87ZM450.86,58.54h10c6.65,0,9.67-2.73,9.67-8V47.83c0-5.24-3-8-9.67-8h-10Zm10.63,23.92c6.87,0,10.12-2.81,10.12-8.34V71.31c0-5.46-3.77-8.34-10.19-8.34H450.86V82.46Z"/><path class="cls-2" d="M502,49.45c9.9,0,15.8,5.17,15.8,14.33v9.67c0,9.16-5.9,14.33-15.8,14.33s-15.72-5.17-15.72-14.33V63.78C486.31,54.62,492.21,49.45,502,49.45Zm0,33.6c6.2,0,9.53-3,9.53-9.15V63.26c0-6-3.33-9.08-9.53-9.08s-9.52,3-9.52,9.08V73.9C492.51,80,495.83,83.05,502,83.05Z"/><path class="cls-2" d="M540.5,87C532.83,87,530,84.16,530,76.78V54.85h-5.54a1.41,1.41,0,0,1-1.55-1.41v-1.7a1.41,1.41,0,0,1,1.55-1.47H530V41.7a2.2,2.2,0,0,1,2.36-2.36h1.48a2.18,2.18,0,0,1,2.28,2.36v8.57H545a1.4,1.4,0,0,1,1.48,1.47v1.7A1.39,1.39,0,0,1,545,54.85h-8.94V76.7c0,3.91,1.26,5.54,4.8,5.54H545a1.37,1.37,0,0,1,1.48,1.48v1.62A1.46,1.46,0,0,1,544.94,87Z"/></g></g></svg>